<svg xmlns="http://www.w3.org/2000/svg" width="24.438" height="22.003" viewBox="0 0 24.438 22.003">
  <g id="Group_490" data-name="Group 490" transform="translate(-1600 -264.43)">
    <path id="Path_1329" data-name="Path 1329" d="M115.03,20.636c-.072.059-.149.113-.215.179q-5.9,5.893-11.789,11.789a2.419,2.419,0,0,0-.167.2l-6.1-6.1,1.658-1.657,4.35,4.35,10.54-10.54c.463.463.9.9,1.337,1.336.122.121.256.23.384.345v.1Z" transform="translate(1509.408 246.772)" fill="#e2c374"/>
    <path id="Path_1330" data-name="Path 1330" d="M16.492,1.483,15.285,3.534a8.7,8.7,0,0,0-8.031-.228,8.186,8.186,0,0,0-4.4,5.074A8.555,8.555,0,0,0,8.555,19.2a8.682,8.682,0,0,0,5.228-.111,8.284,8.284,0,0,0,4.178-3.1,8.494,8.494,0,0,0,1.586-4.976h2.426a10.872,10.872,0,0,1-7.116,10.3A11.006,11.006,0,1,1,16.492,1.483Z" transform="translate(1600 264.432)" fill="#e5e5e5"/>
  </g>
</svg>
