<svg width="2560" height="1377" viewBox="0 0 2560 1377" fill="none" xmlns="http://www.w3.org/2000/svg">
<g clip-path="url(#clip0_1_9)">
<path d="M2547.67 840.5C2547.67 847.864 2553.64 853.833 2561 853.833C2568.36 853.833 2574.33 847.864 2574.33 840.5C2574.33 833.136 2568.36 827.167 2561 827.167C2553.64 827.167 2547.67 833.136 2547.67 840.5ZM2479.5 840.5L2477.76 842.294L2478.49 843H2479.5V840.5ZM2393.5 757L2395.24 755.206L2394.51 754.5H2393.5V757ZM2239.5 757V754.5H2238.46L2237.73 755.239L2239.5 757ZM2158.17 825.5C2158.17 832.864 2164.14 838.833 2171.5 838.833C2178.86 838.833 2184.83 832.864 2184.83 825.5C2184.83 818.136 2178.86 812.167 2171.5 812.167C2164.14 812.167 2158.17 818.136 2158.17 825.5ZM2547.67 876.5C2547.67 883.864 2553.64 889.833 2561 889.833C2568.36 889.833 2574.33 883.864 2574.33 876.5C2574.33 869.136 2568.36 863.167 2561 863.167C2553.64 863.167 2547.67 869.136 2547.67 876.5ZM2393.5 876.5L2391.71 878.25L2392.45 879H2393.5V876.5ZM2343.5 825.5L2345.29 823.75L2344.55 823H2343.5V825.5ZM2226.17 825.5C2226.17 832.864 2232.14 838.833 2239.5 838.833C2246.86 838.833 2252.83 832.864 2252.83 825.5C2252.83 818.136 2246.86 812.167 2239.5 812.167C2232.14 812.167 2226.17 818.136 2226.17 825.5ZM2531.67 939C2531.67 946.364 2537.64 952.333 2545 952.333C2552.36 952.333 2558.33 946.364 2558.33 939C2558.33 931.636 2552.36 925.667 2545 925.667C2537.64 925.667 2531.67 931.636 2531.67 939ZM2403.5 939L2401.73 940.768L2402.46 941.5H2403.5V939ZM2335.17 884C2335.17 891.364 2341.14 897.333 2348.5 897.333C2355.86 897.333 2361.83 891.364 2361.83 884C2361.83 876.636 2355.86 870.667 2348.5 870.667C2341.14 870.667 2335.17 876.636 2335.17 884ZM2547.67 988.5C2547.67 995.864 2553.64 1001.83 2561 1001.83C2568.36 1001.83 2574.33 995.864 2574.33 988.5C2574.33 981.136 2568.36 975.167 2561 975.167C2553.64 975.167 2547.67 981.136 2547.67 988.5ZM2410 988.5L2408.26 990.291L2408.98 991H2410V988.5ZM2295 876.5L2296.74 874.709L2296.02 874H2295V876.5ZM2094.17 876.5C2094.17 883.864 2100.14 889.833 2107.5 889.833C2114.86 889.833 2120.83 883.864 2120.83 876.5C2120.83 869.136 2114.86 863.167 2107.5 863.167C2100.14 863.167 2094.17 869.136 2094.17 876.5ZM2547.67 1062.5C2547.67 1069.86 2553.64 1075.83 2561 1075.83C2568.36 1075.83 2574.33 1069.86 2574.33 1062.5C2574.33 1055.14 2568.36 1049.17 2561 1049.17C2553.64 1049.17 2547.67 1055.14 2547.67 1062.5ZM2393.5 1062.5L2391.72 1064.26L2392.46 1065H2393.5V1062.5ZM2264 931.5L2265.78 929.742L2265.04 929H2264V931.5ZM2079.5 931.5L2077.75 933.289L2078.48 934H2079.5V931.5ZM1976 830.5L1977.75 828.711L1977.02 828H1976V830.5ZM1829.5 830.5V828H1828.49L1827.76 828.703L1829.5 830.5ZM1752 905.5V908H1753.01L1753.74 907.297L1752 905.5ZM1618.5 905.5L1616.74 907.274L1617.47 908H1618.5V905.5ZM1548 835.5L1549.76 833.726L1549.03 833H1548V835.5ZM1374.5 835.5V833H1373.44L1372.7 833.762L1374.5 835.5ZM1330.5 881V883.5H1331.56L1332.3 882.738L1330.5 881ZM1137 881L1135.22 882.76L1135.96 883.5H1137V881ZM1019 762L1020.78 760.24L1020.06 759.515L1019.04 759.5L1019 762ZM749 758L749.037 755.5L747.963 755.484L747.212 756.253L749 758ZM643.5 866V868.5H644.553L645.288 867.747L643.5 866ZM340.167 866C340.167 873.364 346.136 879.333 353.5 879.333C360.864 879.333 366.833 873.364 366.833 866C366.833 858.636 360.864 852.667 353.5 852.667C346.136 852.667 340.167 858.636 340.167 866ZM2547.67 1108C2547.67 1115.36 2553.64 1121.33 2561 1121.33C2568.36 1121.33 2574.33 1115.36 2574.33 1108C2574.33 1100.64 2568.36 1094.67 2561 1094.67C2553.64 1094.67 2547.67 1100.64 2547.67 1108ZM2377 1108L2375.24 1109.78L2375.97 1110.5H2377V1108ZM2231.5 964.5L2233.26 962.72L2232.53 962H2231.5V964.5ZM2042.5 964.5L2040.73 966.268L2041.46 967H2042.5V964.5ZM1981 903L1982.77 901.232L1982.04 900.5H1981V903ZM1859 903V900.5H1857.95L1857.22 901.249L1859 903ZM1805.5 957.5V960H1806.55L1807.28 959.251L1805.5 957.5ZM1591.5 957.5L1589.72 959.26L1590.46 960H1591.5V957.5ZM1533 898.5L1534.78 896.74L1534.04 896H1533V898.5ZM1477 898.5V896H1475.99L1475.26 896.705L1477 898.5ZM1428 946L1428 948.5L1429.01 948.502L1429.74 947.795L1428 946ZM1134.5 945.5L1132.74 947.279L1133.47 947.998L1134.5 948L1134.5 945.5ZM1014 826.5L1015.76 824.721L1015.03 824H1014V826.5ZM805.5 826.5V824H804.489L803.763 824.702L805.5 826.5ZM716 913V915.5H717.011L717.737 914.798L716 913ZM99 913L97.3547 914.882L98.0614 915.5H99V913ZM27.5 850.5L29.1453 848.618L28.4386 848H27.5V850.5ZM-10.8333 850.5C-10.8333 857.864 -4.8638 863.833 2.5 863.833C9.8638 863.833 15.8333 857.864 15.8333 850.5C15.8333 843.136 9.8638 837.167 2.5 837.167C-4.8638 837.167 -10.8333 843.136 -10.8333 850.5ZM2235.67 891.5C2235.67 898.864 2241.64 904.833 2249 904.833C2256.36 904.833 2262.33 898.864 2262.33 891.5C2262.33 884.136 2256.36 878.167 2249 878.167C2241.64 878.167 2235.67 884.136 2235.67 891.5ZM2164.5 810L2166.24 808.201L2165.51 807.5H2164.5V810ZM1634.5 810L1632.75 811.783L1633.48 812.5H1634.5V810ZM1534.67 725C1534.67 732.364 1540.64 738.333 1548 738.333C1555.36 738.333 1561.33 732.364 1561.33 725C1561.33 717.636 1555.36 711.667 1548 711.667C1540.64 711.667 1534.67 717.636 1534.67 725ZM1785.67 725C1785.67 732.364 1791.64 738.333 1799 738.333C1806.36 738.333 1812.33 732.364 1812.33 725C1812.33 717.636 1806.36 711.667 1799 711.667C1791.64 711.667 1785.67 717.636 1785.67 725ZM1464 725V722.5H1462.97L1462.23 723.23L1464 725ZM1231 957.5V960H1232.03L1232.77 959.27L1231 957.5ZM864 957.5L862.093 959.117L862.842 960H864V957.5ZM792.167 888.5C792.167 895.864 798.136 901.833 805.5 901.833C812.864 901.833 818.833 895.864 818.833 888.5C818.833 881.136 812.864 875.167 805.5 875.167C798.136 875.167 792.167 881.136 792.167 888.5ZM1237.67 772.5C1237.67 779.864 1243.64 785.833 1251 785.833C1258.36 785.833 1264.33 779.864 1264.33 772.5C1264.33 765.136 1258.36 759.167 1251 759.167C1243.64 759.167 1237.67 765.136 1237.67 772.5ZM1075.5 772.5L1073.72 774.255L1074.45 775H1075.5V772.5ZM990.667 700C990.667 707.364 996.636 713.333 1004 713.333C1011.36 713.333 1017.33 707.364 1017.33 700C1017.33 692.636 1011.36 686.667 1004 686.667C996.636 686.667 990.667 692.636 990.667 700ZM1661.17 624.5C1661.17 631.864 1667.14 637.833 1674.5 637.833C1681.86 637.833 1687.83 631.864 1687.83 624.5C1687.83 617.136 1681.86 611.167 1674.5 611.167C1667.14 611.167 1661.17 617.136 1661.17 624.5ZM1382 624.5V622H1380.95L1380.22 622.746L1382 624.5ZM1283 725V727.5H1284.05L1284.78 726.754L1283 725ZM1143.5 725L1141.74 726.772L1142.47 727.5H1143.5V725ZM1037.5 619.5L1039.26 617.728L1038.53 617H1037.5V619.5ZM694 619.5V617H692.99L692.263 617.702L694 619.5ZM578.667 718C578.667 725.364 584.636 731.333 592 731.333C599.364 731.333 605.333 725.364 605.333 718C605.333 710.636 599.364 704.667 592 704.667C584.636 704.667 578.667 710.636 578.667 718ZM1225.17 655.5C1225.17 662.864 1231.14 668.833 1238.5 668.833C1245.86 668.833 1251.83 662.864 1251.83 655.5C1251.83 648.136 1245.86 642.167 1238.5 642.167C1231.14 642.167 1225.17 648.136 1225.17 655.5ZM1203 624.5L1204.64 622.617L1203.94 622H1203V624.5ZM755 624.5V622H753.455L752.764 623.382L755 624.5ZM745 644.5V647H746.545L747.236 645.618L745 644.5ZM650 644.5V642H649.025L648.308 642.66L650 644.5ZM605.667 673C605.667 680.364 611.636 686.333 619 686.333C626.364 686.333 632.333 680.364 632.333 673C632.333 665.636 626.364 659.667 619 659.667C611.636 659.667 605.667 665.636 605.667 673ZM2115.67 575C2115.67 582.364 2121.64 588.333 2129 588.333C2136.36 588.333 2142.33 582.364 2142.33 575C2142.33 567.636 2136.36 561.667 2129 561.667C2121.64 561.667 2115.67 567.636 2115.67 575ZM1771 575V572.5H1769.99L1769.26 573.2L1771 575ZM1687.67 642.5C1687.67 649.864 1693.64 655.833 1701 655.833C1708.36 655.833 1714.33 649.864 1714.33 642.5C1714.33 635.136 1708.36 629.167 1701 629.167C1693.64 629.167 1687.67 635.136 1687.67 642.5ZM1986.17 546.5C1986.17 553.864 1992.14 559.833 1999.5 559.833C2006.86 559.833 2012.83 553.864 2012.83 546.5C2012.83 539.136 2006.86 533.167 1999.5 533.167C1992.14 533.167 1986.17 539.136 1986.17 546.5ZM1108 546.5V544H1106.95L1106.22 544.745L1108 546.5ZM1000.5 655.5V658H1001.55L1002.28 657.255L1000.5 655.5ZM660.667 655.5C660.667 662.864 666.636 668.833 674 668.833C681.364 668.833 687.333 662.864 687.333 655.5C687.333 648.136 681.364 642.167 674 642.167C666.636 642.167 660.667 648.136 660.667 655.5ZM844.667 556.5C844.667 563.864 850.636 569.833 858 569.833C865.364 569.833 871.333 563.864 871.333 556.5C871.333 549.136 865.364 543.167 858 543.167C850.636 543.167 844.667 549.136 844.667 556.5ZM682.5 556.5V554H681.511L680.79 554.677L682.5 556.5ZM596.667 624.5C596.667 631.864 602.636 637.833 610 637.833C617.364 637.833 623.333 631.864 623.333 624.5C623.333 617.136 617.364 611.167 610 611.167C602.636 611.167 596.667 617.136 596.667 624.5ZM312.167 690C312.167 697.364 318.136 703.333 325.5 703.333C332.864 703.333 338.833 697.364 338.833 690C338.833 682.636 332.864 676.667 325.5 676.667C318.136 676.667 312.167 682.636 312.167 690ZM57 690L55.5607 692.044L56.2082 692.5H57V690ZM-5.33333 655.5C-5.33333 662.864 0.636203 668.833 8 668.833C15.3638 668.833 21.3333 662.864 21.3333 655.5C21.3333 648.136 15.3638 642.167 8 642.167C0.636203 642.167 -5.33333 648.136 -5.33333 655.5ZM-10.8333 718C-10.8333 725.364 -4.8638 731.333 2.5 731.333C9.8638 731.333 15.8333 725.364 15.8333 718C15.8333 710.636 9.8638 704.667 2.5 704.667C-4.8638 704.667 -10.8333 710.636 -10.8333 718ZM71.5 649.5V647H70.4698L69.7387 647.726L71.5 649.5ZM182.667 649.5C182.667 656.864 188.636 662.833 196 662.833C203.364 662.833 209.333 656.864 209.333 649.5C209.333 642.136 203.364 636.167 196 636.167C188.636 636.167 182.667 642.136 182.667 649.5ZM-5.33333 573.5C-5.33333 580.864 0.636203 586.833 8 586.833C15.3638 586.833 21.3333 580.864 21.3333 573.5C21.3333 566.136 15.3638 560.167 8 560.167C0.636203 560.167 -5.33333 566.136 -5.33333 573.5ZM57 624.5L55.1972 626.232L55.9351 627H57V624.5ZM312.167 624.5C312.167 631.864 318.136 637.833 325.5 637.833C332.864 637.833 338.833 631.864 338.833 624.5C338.833 617.136 332.864 611.167 325.5 611.167C318.136 611.167 312.167 617.136 312.167 624.5ZM2561 838H2479.5V843H2561V838ZM2481.24 838.706L2395.24 755.206L2391.76 758.794L2477.76 842.294L2481.24 838.706ZM2393.5 754.5H2239.5V759.5H2393.5V754.5ZM2237.73 755.239L2169.73 823.739L2173.27 827.261L2241.27 758.761L2237.73 755.239ZM2561 874H2393.5V879H2561V874ZM2395.29 874.75L2345.29 823.75L2341.71 827.25L2391.71 878.25L2395.29 874.75ZM2343.5 823H2239.5V828H2343.5V823ZM2545 936.5H2403.5V941.5H2545V936.5ZM2405.27 937.232L2350.27 882.232L2346.73 885.768L2401.73 940.768L2405.27 937.232ZM2561 986H2410V991H2561V986ZM2411.74 986.709L2296.74 874.709L2293.26 878.291L2408.26 990.291L2411.74 986.709ZM2295 874H2107.5V879H2295V874ZM2561 1060H2393.5V1065H2561V1060ZM2395.28 1060.74L2265.78 929.742L2262.22 933.258L2391.72 1064.26L2395.28 1060.74ZM2264 929H2079.5V934H2264V929ZM2081.25 929.711L1977.75 828.711L1974.25 832.289L2077.75 933.289L2081.25 929.711ZM1976 828H1829.5V833H1976V828ZM1827.76 828.703L1750.26 903.703L1753.74 907.297L1831.24 832.297L1827.76 828.703ZM1752 903H1618.5V908H1752V903ZM1620.26 903.726L1549.76 833.726L1546.24 837.274L1616.74 907.274L1620.26 903.726ZM1548 833H1374.5V838H1548V833ZM1372.7 833.762L1328.7 879.262L1332.3 882.738L1376.3 837.238L1372.7 833.762ZM1330.5 878.5H1137V883.5H1330.5V878.5ZM1138.78 879.24L1020.78 760.24L1017.22 763.76L1135.22 882.76L1138.78 879.24ZM1019.04 759.5L749.037 755.5L748.963 760.5L1018.96 764.5L1019.04 759.5ZM747.212 756.253L641.712 864.253L645.288 867.747L750.788 759.747L747.212 756.253ZM643.5 863.5H353.5V868.5H643.5V863.5ZM2561 1105.5H2377V1110.5H2561V1105.5ZM2378.76 1106.22L2233.26 962.72L2229.74 966.28L2375.24 1109.78L2378.76 1106.22ZM2231.5 962H2042.5V967H2231.5V962ZM2044.27 962.732L1982.77 901.232L1979.23 904.768L2040.73 966.268L2044.27 962.732ZM1981 900.5H1859V905.5H1981V900.5ZM1857.22 901.249L1803.72 955.749L1807.28 959.251L1860.78 904.751L1857.22 901.249ZM1805.5 955H1591.5V960H1805.5V955ZM1593.28 955.74L1534.78 896.74L1531.22 900.26L1589.72 959.26L1593.28 955.74ZM1533 896H1477V901H1533V896ZM1475.26 896.705L1426.26 944.205L1429.74 947.795L1478.74 900.295L1475.26 896.705ZM1428 943.5L1134.5 943L1134.5 948L1428 948.5L1428 943.5ZM1136.26 943.721L1015.76 824.721L1012.24 828.279L1132.74 947.279L1136.26 943.721ZM1014 824H805.5V829H1014V824ZM803.763 824.702L714.263 911.202L717.737 914.798L807.237 828.298L803.763 824.702ZM716 910.5H99V915.5H716V910.5ZM100.645 911.118L29.1453 848.618L25.8547 852.382L97.3547 914.882L100.645 911.118ZM27.5 848H2.5V853H27.5V848ZM2250.74 889.701L2166.24 808.201L2162.76 811.799L2247.26 893.299L2250.74 889.701ZM2164.5 807.5H1634.5V812.5H2164.5V807.5ZM1636.25 808.217L1549.75 723.217L1546.25 726.783L1632.75 811.783L1636.25 808.217ZM1799 722.5H1464V727.5H1799V722.5ZM1462.23 723.23L1229.23 955.73L1232.77 959.27L1465.77 726.77L1462.23 723.23ZM1231 955H864V960H1231V955ZM865.907 955.883L807.407 886.883L803.593 890.117L862.093 959.117L865.907 955.883ZM1251 770H1075.5V775H1251V770ZM1077.28 770.745L1005.78 698.245L1002.22 701.755L1073.72 774.255L1077.28 770.745ZM1674.5 622H1382V627H1674.5V622ZM1380.22 622.746L1281.22 723.246L1284.78 726.754L1383.78 626.254L1380.22 622.746ZM1283 722.5H1143.5V727.5H1283V722.5ZM1145.26 723.228L1039.26 617.728L1035.74 621.272L1141.74 726.772L1145.26 723.228ZM1037.5 617H694V622H1037.5V617ZM692.263 617.702L590.263 716.202L593.737 719.798L695.737 621.298L692.263 617.702ZM1240.14 653.617L1204.64 622.617L1201.36 626.383L1236.86 657.383L1240.14 653.617ZM1203 622H755V627H1203V622ZM752.764 623.382L742.764 643.382L747.236 645.618L757.236 625.618L752.764 623.382ZM745 642H650V647H745V642ZM648.308 642.66L617.308 671.16L620.692 674.84L651.692 646.34L648.308 642.66ZM2129 572.5H1771V577.5H2129V572.5ZM1769.26 573.2L1699.26 640.7L1702.74 644.3L1772.74 576.8L1769.26 573.2ZM1999.5 544H1108V549H1999.5V544ZM1106.22 544.745L998.72 653.745L1002.28 657.255L1109.78 548.255L1106.22 544.745ZM1000.5 653H674V658H1000.5V653ZM858 554H682.5V559H858V554ZM680.79 554.677L608.29 622.677L611.71 626.323L684.21 558.323L680.79 554.677ZM325.5 687.5H57V692.5H325.5V687.5ZM58.4393 687.956L9.43925 653.456L6.56075 657.544L55.5607 692.044L58.4393 687.956ZM4.26133 719.774L73.2613 651.274L69.7387 647.726L0.738673 716.226L4.26133 719.774ZM71.5 652H196V647H71.5V652ZM6.19724 575.232L55.1972 626.232L58.8028 622.768L9.80276 571.768L6.19724 575.232ZM57 627H325.5V622H57V627Z" fill="#F7F7BF"/>
<path d="M2546.67 215C2546.67 222.364 2552.64 228.333 2560 228.333C2567.36 228.333 2573.33 222.364 2573.33 215C2573.33 207.636 2567.36 201.667 2560 201.667C2552.64 201.667 2546.67 207.636 2546.67 215ZM2475.5 215V212.5H2474.48L2473.75 213.218L2475.5 215ZM2353 335.5V338H2354.02L2354.75 337.282L2353 335.5ZM2053 335.5V333H2051.96L2051.23 333.732L2053 335.5ZM1905 483.5V486H1906.04L1906.77 485.268L1905 483.5ZM1375.5 483.5V481H1374.47L1373.74 481.724L1375.5 483.5ZM1193.67 650.5C1193.67 657.864 1199.64 663.833 1207 663.833C1214.36 663.833 1220.33 657.864 1220.33 650.5C1220.33 643.136 1214.36 637.167 1207 637.167C1199.64 637.167 1193.67 643.136 1193.67 650.5ZM2423.67 482.5C2423.67 489.864 2429.64 495.833 2437 495.833C2444.36 495.833 2450.33 489.864 2450.33 482.5C2450.33 475.136 2444.36 469.167 2437 469.167C2429.64 469.167 2423.67 475.136 2423.67 482.5ZM2102 482.5V480H2100.97L2100.24 480.729L2102 482.5ZM1973.5 610.5V613H1974.53L1975.26 612.271L1973.5 610.5ZM1800.5 610.5L1798.74 612.278L1799.47 613H1800.5V610.5ZM1714 525L1715.76 523.222L1715.03 522.5H1714V525ZM1426 525V522.5H1424.98L1424.25 523.211L1426 525ZM1264.17 670C1264.17 677.364 1270.14 683.333 1277.5 683.333C1284.86 683.333 1290.83 677.364 1290.83 670C1290.83 662.636 1284.86 656.667 1277.5 656.667C1270.14 656.667 1264.17 662.636 1264.17 670ZM2546.67 480.5C2546.67 487.864 2552.64 493.833 2560 493.833C2567.36 493.833 2573.33 487.864 2573.33 480.5C2573.33 473.136 2567.36 467.167 2560 467.167C2552.64 467.167 2546.67 473.136 2546.67 480.5ZM2517.5 524V526.5H2518.55L2519.29 525.747L2517.5 524ZM2148.5 524V521.5H2147.47L2146.74 522.229L2148.5 524ZM1997.5 674.5V677H1998.53L1999.26 676.271L1997.5 674.5ZM1795 674.5L1793.26 676.292L1793.98 677H1795V674.5ZM1704 586L1705.74 584.208L1705.02 583.506L1704.02 583.5L1704 586ZM1443.67 584.5C1443.67 591.864 1449.64 597.833 1457 597.833C1464.36 597.833 1470.33 591.864 1470.33 584.5C1470.33 577.136 1464.36 571.167 1457 571.167C1449.64 571.167 1443.67 577.136 1443.67 584.5ZM2469.17 562.5C2469.17 569.864 2475.14 575.833 2482.5 575.833C2489.86 575.833 2495.83 569.864 2495.83 562.5C2495.83 555.136 2489.86 549.167 2482.5 549.167C2475.14 549.167 2469.17 555.136 2469.17 562.5ZM2193.5 562.5V560H2192.47L2191.74 560.722L2193.5 562.5ZM2026.5 727.5V730H2027.53L2028.26 729.278L2026.5 727.5ZM1774 727.5L1772.24 729.274L1772.97 730H1774V727.5ZM1707 661L1708.76 659.226L1708.03 658.5H1707V661ZM1495.67 661C1495.67 668.364 1501.64 674.333 1509 674.333C1516.36 674.333 1522.33 668.364 1522.33 661C1522.33 653.636 1516.36 647.667 1509 647.667C1501.64 647.667 1495.67 653.636 1495.67 661ZM2560 212.5H2475.5V217.5H2560V212.5ZM2473.75 213.218L2351.25 333.718L2354.75 337.282L2477.25 216.782L2473.75 213.218ZM2353 333H2053V338H2353V333ZM2051.23 333.732L1903.23 481.732L1906.77 485.268L2054.77 337.268L2051.23 333.732ZM1905 481H1375.5V486H1905V481ZM1373.74 481.724L1205.24 648.724L1208.76 652.276L1377.26 485.276L1373.74 481.724ZM2437 480H2102V485H2437V480ZM2100.24 480.729L1971.74 608.729L1975.26 612.271L2103.76 484.271L2100.24 480.729ZM1973.5 608H1800.5V613H1973.5V608ZM1802.26 608.722L1715.76 523.222L1712.24 526.778L1798.74 612.278L1802.26 608.722ZM1714 522.5H1426V527.5H1714V522.5ZM1424.25 523.211L1275.75 668.211L1279.25 671.789L1427.75 526.789L1424.25 523.211ZM2558.21 478.753L2515.71 522.253L2519.29 525.747L2561.79 482.247L2558.21 478.753ZM2517.5 521.5H2148.5V526.5H2517.5V521.5ZM2146.74 522.229L1995.74 672.729L1999.26 676.271L2150.26 525.771L2146.74 522.229ZM1997.5 672H1795V677H1997.5V672ZM1796.74 672.708L1705.74 584.208L1702.26 587.792L1793.26 676.292L1796.74 672.708ZM1704.02 583.5L1457.02 582L1456.98 587L1703.98 588.5L1704.02 583.5ZM2482.5 560H2193.5V565H2482.5V560ZM2191.74 560.722L2024.74 725.722L2028.26 729.278L2195.26 564.278L2191.74 560.722ZM2026.5 725H1774V730H2026.5V725ZM1775.76 725.726L1708.76 659.226L1705.24 662.774L1772.24 729.274L1775.76 725.726ZM1707 658.5H1509V663.5H1707V658.5Z" fill="#F7F7BF"/>
<path d="M2546.17 686C2546.17 693.364 2552.14 699.333 2559.5 699.333C2566.86 699.333 2572.83 693.364 2572.83 686C2572.83 678.636 2566.86 672.667 2559.5 672.667C2552.14 672.667 2546.17 678.636 2546.17 686ZM2218 686V683.5H2216.97L2216.24 684.226L2218 686ZM2056.17 833.5C2056.17 840.864 2062.14 846.833 2069.5 846.833C2076.86 846.833 2082.83 840.864 2082.83 833.5C2082.83 826.136 2076.86 820.167 2069.5 820.167C2062.14 820.167 2056.17 826.136 2056.17 833.5ZM2546.17 596C2546.17 603.364 2552.14 609.333 2559.5 609.333C2566.86 609.333 2572.83 603.364 2572.83 596C2572.83 588.636 2566.86 582.667 2559.5 582.667C2552.14 582.667 2546.17 588.636 2546.17 596ZM2227.5 596V593.5H2226.47L2225.74 594.223L2227.5 596ZM2041 780.5V783H2042.03L2042.76 782.277L2041 780.5ZM1728 780.5L1726.24 782.279L1726.97 783H1728V780.5ZM1651.5 705L1653.26 703.221L1652.53 702.5H1651.5V705ZM1389.5 705V702.5H1388.47L1387.74 703.227L1389.5 705ZM1308 786V788.5H1309.03L1309.76 787.773L1308 786ZM1158 786L1156.27 787.806L1157 788.5H1158V786ZM1053 685.5L1054.73 683.694L1054 683H1053V685.5ZM703.5 685.5V683H702.427L701.688 683.778L703.5 685.5ZM569.5 826.5L569.526 829L570.584 828.989L571.312 828.222L569.5 826.5ZM138.5 831L136.746 832.782L137.487 833.511L138.526 833.5L138.5 831ZM75 768.5L76.7537 766.718L76.0239 766H75V768.5ZM-8.33333 768.5C-8.33333 775.864 -2.3638 781.833 5 781.833C12.3638 781.833 18.3333 775.864 18.3333 768.5C18.3333 761.136 12.3638 755.167 5 755.167C-2.3638 755.167 -8.33333 761.136 -8.33333 768.5ZM2559.5 683.5H2218V688.5H2559.5V683.5ZM2216.24 684.226L2067.74 831.726L2071.26 835.274L2219.76 687.774L2216.24 684.226ZM2559.5 593.5H2227.5V598.5H2559.5V593.5ZM2225.74 594.223L2039.24 778.723L2042.76 782.277L2229.26 597.777L2225.74 594.223ZM2041 778H1728V783H2041V778ZM1729.76 778.721L1653.26 703.221L1649.74 706.779L1726.24 782.279L1729.76 778.721ZM1651.5 702.5H1389.5V707.5H1651.5V702.5ZM1387.74 703.227L1306.24 784.227L1309.76 787.773L1391.26 706.773L1387.74 703.227ZM1308 783.5H1158V788.5H1308V783.5ZM1159.73 784.194L1054.73 683.694L1051.27 687.306L1156.27 787.806L1159.73 784.194ZM1053 683H703.5V688H1053V683ZM701.688 683.778L567.688 824.778L571.312 828.222L705.312 687.222L701.688 683.778ZM569.474 824L138.474 828.5L138.526 833.5L569.526 829L569.474 824ZM140.254 829.218L76.7537 766.718L73.2463 770.282L136.746 832.782L140.254 829.218ZM75 766H5V771H75V766Z" fill="#F7F7BF"/>
<g filter="url(#filter0_d_1_9)">
<path d="M325 287C325 260.49 346.49 239 373 239H702C728.51 239 750 260.49 750 287V1090C750 1116.51 728.51 1138 702 1138H373C346.49 1138 325 1116.51 325 1090V287Z" fill="url(#paint0_linear_1_9)" fill-opacity="0.92" shape-rendering="crispEdges"/>
<path d="M325 287C325 260.49 346.49 239 373 239H702C728.51 239 750 260.49 750 287V1090C750 1116.51 728.51 1138 702 1138H373C346.49 1138 325 1116.51 325 1090V287Z" fill="white" fill-opacity="0.08" shape-rendering="crispEdges"/>
<path d="M373 241.5H702C727.129 241.5 747.5 261.871 747.5 287V1090C747.5 1115.13 727.129 1135.5 702 1135.5H373C347.871 1135.5 327.5 1115.13 327.5 1090V287C327.5 261.871 347.871 241.5 373 241.5Z" stroke="#F7F7BF" stroke-width="5" shape-rendering="crispEdges"/>
</g>
</g>
<defs>
<filter id="filter0_d_1_9" x="284" y="185" width="613" height="1087" filterUnits="userSpaceOnUse" color-interpolation-filters="sRGB">
<feFlood flood-opacity="0" result="BackgroundImageFix"/>
<feColorMatrix in="SourceAlpha" type="matrix" values="0 0 0 0 0 0 0 0 0 0 0 0 0 0 0 0 0 0 127 0" result="hardAlpha"/>
<feOffset dx="53" dy="40"/>
<feGaussianBlur stdDeviation="47"/>
<feComposite in2="hardAlpha" operator="out"/>
<feColorMatrix type="matrix" values="0 0 0 0 0 0 0 0 0 0 0 0 0 0 0 0 0 0 0.25 0"/>
<feBlend mode="normal" in2="BackgroundImageFix" result="effect1_dropShadow_1_9"/>
<feBlend mode="normal" in="SourceGraphic" in2="effect1_dropShadow_1_9" result="shape"/>
</filter>
<linearGradient id="paint0_linear_1_9" x1="328.431" y1="239" x2="746.569" y2="1138" gradientUnits="userSpaceOnUse">
<stop stop-color="white"/>
<stop offset="0.066595" stop-color="#F7F7BF"/>
<stop offset="0.414494" stop-color="#928989" stop-opacity="0"/>
<stop offset="0.658425" stop-color="#928989" stop-opacity="0"/>
</linearGradient>
<clipPath id="clip0_1_9">
<rect width="2560" height="1377" fill="white"/>
</clipPath>
</defs>
</svg>
