<svg xmlns="http://www.w3.org/2000/svg" xmlns:xlink="http://www.w3.org/1999/xlink" width="1786"
    height="1080" viewBox="0 0 1786 1080">
    <defs>
        <clipPath id="clip-Web_1920_17">
            <rect width="1786" height="1080" />
        </clipPath>
    </defs>
    <g id="Web_1920_17" data-name="Web 1920 – 17" clip-path="url(#clip-Web_1920_17)">
        <path id="Path_996" data-name="Path 996"
            d="M5971.159,339.49h65.87a14.874,14.874,0,0,1,3.771.355c3.914,1.01,7.567,4.977,7.58,9.442,0,.633.013,1.267.013,1.9v64.095c0,.576-.013,1.152-.007,1.728a10.266,10.266,0,0,1-10.025,9.909c-5.935.082-11.872.022-17.807.023a6.556,6.556,0,0,1-.69-.024.552.552,0,0,1-.561-.537c-.028-.574-.036-1.15-.036-1.725q0-24.446,0-48.892c0-.634-.026-1.268,0-1.9a5.2,5.2,0,0,0-5.1-5.264c-.288-.021-.576-.008-.864-.008h-21.266c-1.973,0-1.9-.137-1.9,1.857q0,11.92.008,23.841a5.87,5.87,0,0,1-1.249,3.854,5.135,5.135,0,0,1-5.773,1.567,10.327,10.327,0,0,1-1.391-.689c-6.351-3.628-12.71-7.242-19.039-10.909-2-1.156-1.815-.679-1.818-3.234,0-3.57,0-7.141,0-10.711a5.716,5.716,0,0,0-.293-2.209,5.292,5.292,0,0,0-4.819-3.355c-.515-.049-1.038-.011-1.556-.011q-20.316,0-40.63,0a12.381,12.381,0,0,1-4.078-.576,10.41,10.41,0,0,1-6.862-9.47q0-8.9,0-17.794a6.488,6.488,0,0,1,.032-.689.544.544,0,0,1,.553-.54c.575-.025,1.15-.033,1.727-.033q33.108,0,66.216,0Z"
            transform="translate(-5762.631 -228.284)" fill="#fefefe" />
        <path id="Path_997" data-name="Path 997"
            d="M5979.607,1099.152q-32.937,0-65.876.008a10.943,10.943,0,0,1-4.733-.765,10.173,10.173,0,0,1-6.378-9.1c-.022-.344-.011-.691-.011-1.037q0-32.741,0-65.483a11.285,11.285,0,0,1,.314-3.251,10.206,10.206,0,0,1,8.138-7.572,11.127,11.127,0,0,1,2.4-.252q8.3.016,16.6,0c.287,0,.576-.007.863.011.631.04.764.179.793.865.02.518.009,1.037.009,1.555v49.241c0,.634-.024,1.27.024,1.9a5.252,5.252,0,0,0,4.876,4.766c.4.025.807.013,1.209.013q10.547,0,21.095,0c2.046,0,1.924.14,1.924-2.011q0-11.4,0-22.807a10.99,10.99,0,0,1,.234-2.573,5.146,5.146,0,0,1,6.84-3.687,7.265,7.265,0,0,1,1.089.519q9.677,5.53,19.348,11.07c.051.029.1.059.148.089,1.809,1.141,1.6.525,1.605,2.8.012,3.628,0,7.257.007,10.885a6.328,6.328,0,0,0,.253,2.217,5.242,5.242,0,0,0,4.711,3.483c.633.031,1.268.011,1.9.011q20.316,0,40.633-.01a10.826,10.826,0,0,1,5.161,1.182,10.436,10.436,0,0,1,5.2,6.176,8.056,8.056,0,0,1,.373,2.552q.023,8.985.014,17.969c0,.115,0,.231-.009.345-.047.678-.174.833-.8.864-.575.027-1.152.017-1.729.017h-66.223Z"
            transform="translate(-4399.372 -138.367)" fill="#fefefe" />
        <path id="Path_998" data-name="Path 998"
            d="M5570.173,145.961c-.141-.175-.351-.187-.546-.247a7.355,7.355,0,0,1-5.445-6.075,11.965,11.965,0,0,1-.14-2.211q0-38.523,0-77.045V8.65a12.265,12.265,0,0,1,.15-2.211,7.368,7.368,0,0,1,5.116-5.954c.452-.164.986-.1,1.361-.475h132.712c.286.378.749.268,1.124.391a7.181,7.181,0,0,1,5.144,5.111c.019.069.1.119.158.177V140.281c-.341.431-.288,1-.532,1.477a7.588,7.588,0,0,1-4.614,3.916c-.266.085-.576.048-.785.287h-133.7Zm63.759-124.974h-47.317c-.412,0-.823.006-1.234.023a.39.39,0,0,0-.4.386,4.733,4.733,0,0,0-.023.492q0,6.357,0,12.715a7.439,7.439,0,0,0,4.9,6.767,8.851,8.851,0,0,0,2.915.412q14.517-.009,29.033,0c.371,0,.744-.027,1.111.008a3.783,3.783,0,0,1,3.444,2.4,4.092,4.092,0,0,1,.208,1.579c0,2.551,0,5.1,0,7.654,0,1.826-.126,1.485,1.3,2.311,4.522,2.621,9.066,5.2,13.6,7.8a7.435,7.435,0,0,0,.994.492,3.668,3.668,0,0,0,4.125-1.12,4.19,4.19,0,0,0,.892-2.754q-.015-8.518,0-17.037c0-1.425-.054-1.327,1.355-1.327h15.2c.206,0,.413-.01.618.006a3.72,3.72,0,0,1,3.646,3.762c-.02.452,0,.905,0,1.358q0,17.469,0,34.938c0,.411.006.822.025,1.233a.4.4,0,0,0,.4.384,4.856,4.856,0,0,0,.493.017c4.241,0,8.484.042,12.725-.017a7.337,7.337,0,0,0,7.164-7.081c0-.412,0-.823,0-1.235v-45.8c0-.452-.008-.905-.009-1.358a7.4,7.4,0,0,0-5.417-6.747,10.618,10.618,0,0,0-2.694-.253q-23.535,0-47.069,0Zm6.053,104.028h47.321c.411,0,.824.007,1.235-.012.45-.022.541-.133.574-.617.005-.082.006-.164.006-.247q0-6.42-.01-12.84a5.732,5.732,0,0,0-.266-1.823,7.463,7.463,0,0,0-3.719-4.413,7.733,7.733,0,0,0-3.688-.845q-14.517.02-29.035.007c-.453,0-.907.014-1.359-.008a3.748,3.748,0,0,1-3.366-2.489,4.543,4.543,0,0,1-.181-1.584c0-2.593,0-5.186,0-7.778-.005-1.628.145-1.188-1.147-2-.035-.022-.07-.043-.106-.064q-6.911-3.957-13.825-7.911a5.147,5.147,0,0,0-.778-.371,3.678,3.678,0,0,0-4.888,2.635,7.9,7.9,0,0,0-.167,1.838q.008,8.149,0,16.3c0,1.537.086,1.437-1.375,1.437q-7.537,0-15.074,0c-.289,0-.577.009-.864-.009a3.752,3.752,0,0,1-3.484-3.405c-.036-.45-.017-.9-.017-1.358q0-17.594,0-35.187c0-.37.009-.742-.006-1.111-.02-.49-.116-.589-.566-.618-.205-.013-.412-.008-.617-.008q-5.93,0-11.861,0a7.867,7.867,0,0,0-1.714.18,7.29,7.29,0,0,0-5.815,5.41,8.067,8.067,0,0,0-.225,2.323q0,23.4,0,46.793c0,.247-.008.494.007.741a7.271,7.271,0,0,0,4.558,6.5,7.822,7.822,0,0,0,3.382.547q23.537-.014,47.074-.006Z"
            transform="translate(-4743.922 469.016)" fill="#8c8c8c" stroke="#fff" stroke-width="1" />
        <g id="Group_378" data-name="Group 378" transform="translate(-9736 19448)">
            <rect id="Rectangle_199" data-name="Rectangle 199" width="165" height="165"
                transform="translate(10547 -18990)" fill="#e2c374" />
            <path id="Path_998-2" data-name="Path 998"
                d="M5570.173,145.961c-.141-.175-.351-.187-.546-.247a7.355,7.355,0,0,1-5.445-6.075,11.965,11.965,0,0,1-.14-2.211q0-38.523,0-77.045V8.65a12.265,12.265,0,0,1,.15-2.211,7.368,7.368,0,0,1,5.116-5.954c.452-.164.986-.1,1.361-.475h132.712c.286.378.749.268,1.124.391a7.181,7.181,0,0,1,5.144,5.111c.019.069.1.119.158.177V140.281c-.341.431-.288,1-.532,1.477a7.588,7.588,0,0,1-4.614,3.916c-.266.085-.576.048-.785.287h-133.7Zm63.759-124.974h-47.317c-.412,0-.823.006-1.234.023a.39.39,0,0,0-.4.386,4.733,4.733,0,0,0-.023.492q0,6.357,0,12.715a7.439,7.439,0,0,0,4.9,6.767,8.851,8.851,0,0,0,2.915.412q14.517-.009,29.033,0c.371,0,.744-.027,1.111.008a3.783,3.783,0,0,1,3.444,2.4,4.092,4.092,0,0,1,.208,1.579c0,2.551,0,5.1,0,7.654,0,1.826-.126,1.485,1.3,2.311,4.522,2.621,9.066,5.2,13.6,7.8a7.435,7.435,0,0,0,.994.492,3.668,3.668,0,0,0,4.125-1.12,4.19,4.19,0,0,0,.892-2.754q-.015-8.518,0-17.037c0-1.425-.054-1.327,1.355-1.327h15.2c.206,0,.413-.01.618.006a3.72,3.72,0,0,1,3.646,3.762c-.02.452,0,.905,0,1.358q0,17.469,0,34.938c0,.411.006.822.025,1.233a.4.4,0,0,0,.4.384,4.856,4.856,0,0,0,.493.017c4.241,0,8.484.042,12.725-.017a7.337,7.337,0,0,0,7.164-7.081c0-.412,0-.823,0-1.235v-45.8c0-.452-.008-.905-.009-1.358a7.4,7.4,0,0,0-5.417-6.747,10.618,10.618,0,0,0-2.694-.253q-23.535,0-47.069,0Zm6.053,104.028h47.321c.411,0,.824.007,1.235-.012.45-.022.541-.133.574-.617.005-.082.006-.164.006-.247q0-6.42-.01-12.84a5.732,5.732,0,0,0-.266-1.823,7.463,7.463,0,0,0-3.719-4.413,7.733,7.733,0,0,0-3.688-.845q-14.517.02-29.035.007c-.453,0-.907.014-1.359-.008a3.748,3.748,0,0,1-3.366-2.489,4.543,4.543,0,0,1-.181-1.584c0-2.593,0-5.186,0-7.778-.005-1.628.145-1.188-1.147-2-.035-.022-.07-.043-.106-.064q-6.911-3.957-13.825-7.911a5.147,5.147,0,0,0-.778-.371,3.678,3.678,0,0,0-4.888,2.635,7.9,7.9,0,0,0-.167,1.838q.008,8.149,0,16.3c0,1.537.086,1.437-1.375,1.437q-7.537,0-15.074,0c-.289,0-.577.009-.864-.009a3.752,3.752,0,0,1-3.484-3.405c-.036-.45-.017-.9-.017-1.358q0-17.594,0-35.187c0-.37.009-.742-.006-1.111-.02-.49-.116-.589-.566-.618-.205-.013-.412-.008-.617-.008q-5.93,0-11.861,0a7.867,7.867,0,0,0-1.714.18,7.29,7.29,0,0,0-5.815,5.41,8.067,8.067,0,0,0-.225,2.323q0,23.4,0,46.793c0,.247-.008.494.007.741a7.271,7.271,0,0,0,4.558,6.5,7.822,7.822,0,0,0,3.382.547q23.537-.014,47.074-.006Z"
                transform="translate(4992.078 -18978.984)" fill="#8c8c8c" stroke="#fff"
                stroke-width="1" />
        </g>
    </g>
</svg>
  